<svg width="288" height="48" viewBox="0 0 288 48" fill="none" xmlns="http://www.w3.org/2000/svg">
<path fill-rule="evenodd" clip-rule="evenodd" d="M71.6816 10.2852H76.1269L90.1625 32.5044V10.2852H93.7376V37.7137H89.5194L75.2757 15.5132V37.7137H71.6816V10.2852ZM107.311 10.2852H127.389V13.646H110.947V21.9736H126.151V25.1477H110.947V34.4462H127.67V37.7137H107.311V10.2852ZM159.906 13.5527V10.2852H137.85V13.5527H147.009V37.7137H150.746V13.5527H159.906ZM180.362 34.5396C181.609 34.5396 182.634 34.4089 183.436 34.1475C184.868 33.662 186.041 32.7284 186.955 31.3467C187.683 30.2389 188.208 28.8198 188.528 27.0896C188.714 26.0564 188.806 25.098 188.806 24.2142C188.806 20.8159 188.137 18.177 186.797 16.2974C185.458 14.4178 183.3 13.478 180.325 13.478H173.789V34.5396H180.362ZM170.085 10.2852H181.103C184.844 10.2852 187.745 11.6233 189.806 14.2995C191.646 16.7144 192.565 19.8077 192.565 23.5793C192.565 26.4921 192.022 29.1248 190.936 31.4774C189.022 35.635 185.732 37.7137 181.066 37.7137H170.085V10.2852ZM215.074 14.3556L219.258 26.4734H210.626L215.074 14.3556ZM217.344 10.2852H213.122L202.745 37.7137H206.573L209.557 29.4982H220.459L223.255 37.7137H227.346L217.344 10.2852ZM279.912 26.4734L275.727 14.3556L271.28 26.4734H279.912ZM273.776 10.2852H277.998L288 37.7137H283.909L281.113 29.4982H270.211L267.227 37.7137H263.399L273.776 10.2852ZM256.612 13.5527V10.2852H234.132V13.5527H243.468V37.7137H247.277V13.5527H256.612Z" fill="#35414A"/>
<path fill-rule="evenodd" clip-rule="evenodd" d="M35.4836 48H23.8471L0 0H33.8504C47.0129 0.0252233 57.6779 11.1485 57.6848 24.8705C57.6637 37.6582 47.7342 48 35.4836 48Z" fill="#00CB51"/>
</svg>
